<svg xmlns="http://www.w3.org/2000/svg" viewBox="0 0 391.55 324.73"><defs><style>.cls-1{fill:none;}.cls-2{fill:#ffde5a;}</style></defs><g id="Layer_2" data-name="Layer 2"><g id="Layer_1-2" data-name="Layer 1"><path class="cls-1" d="M217.25,227.62v2.49a32.47,32.47,0,0,1,2.18,4.67,18.18,18.18,0,0,0,3.42,5.6c4.36,2.81,8.1,4.36,11.21,4.36a32.46,32.46,0,0,0,6.54-.93,13.75,13.75,0,0,0,7.47-3.43,16,16,0,0,0,4.66-8.09,13.26,13.26,0,0,0,.63-3.11V171.46l-35.48,0v56.14Z"/><path class="cls-1" d="M146.6,150V128.86c0-3.11,0-6.54-.31-9.65a26.81,26.81,0,0,0-1.87-5.29,12.76,12.76,0,0,0-4-5.6,14,14,0,0,0-6.23-3.43,15.53,15.53,0,0,0-5-.93c-1.25,0-3.42.31-6.23.62a16.91,16.91,0,0,0-7.15,3.43,18,18,0,0,0-4.67,8.71,9.82,9.82,0,0,0-.63,2.49v46.65l36.11,0Z"/><path class="cls-1" d="M110.49,216.73V227c.63,8.71,8.1,16.19,16.81,16.19a24.27,24.27,0,0,0,6.23-.63,15.78,15.78,0,0,0,7.78-3.42,14.41,14.41,0,0,0,4-5.6c1.56-4,.94-9,.94-13.08.31-4.35.31-9,.31-13.69V171.53l-36.11,0v45.18Z"/><path class="cls-1" d="M253.36,119.83a23.48,23.48,0,0,0-1.87-4.66,21,21,0,0,0-4.05-5.61,30.84,30.84,0,0,0-5.91-3.42,19.13,19.13,0,0,0-5-.93c-1.56,0-3.73.31-6.54.62a20.59,20.59,0,0,0-7.47,3.42,18,18,0,0,0-4.66,8.72v47.82l35.48,0Z"/><path class="cls-2" d="M5.6,317c-1.86,2.49-3.73,5.3-5.6,7.78,2.18-3.11,10.89-3.42,14.32-5.29A69.06,69.06,0,0,0,28,307.62c13.7-15.26,24-36.42,27.4-60.39,2.17-14.32,4.35-31.44,5.29-46.38.26-2.68.53-16,.6-29.26H34.45C34.61,221.77,32.36,274.69,5.6,317Z"/><path class="cls-2" d="M61.63,159.36c-.31-77.5-.31-57-.31-140.06,0-1.25,0-7.78.31-11.83H73.77V1.25H23.66V7.47H33.93c.31,4.67.31,12.45.31,14.63V129.8c0,11.74.18,23.84.21,36.11l26.85,0c0-2.09,0-4.17,0-6.21Z"/><path class="cls-2" d="M146.6,182.18v24.59c0,4.67,0,9.34-.31,13.69,0,4,.62,9-.94,13.08a14.41,14.41,0,0,1-4,5.6,15.78,15.78,0,0,1-7.78,3.42,24.27,24.27,0,0,1-6.23.63c-8.71,0-16.18-7.48-16.81-16.19V171.55l-26.14,0V217c0,1.55.93,4.05,2.49,7.78a30.87,30.87,0,0,0,4,7.78,30.49,30.49,0,0,0,7.78,7.78,46.71,46.71,0,0,0,11.82,5.92,57.56,57.56,0,0,0,17.43,2.49h1.87a47.9,47.9,0,0,0,24-5.92,35.46,35.46,0,0,0,10.27-8.4,47.06,47.06,0,0,0,5.29-9.34,49.1,49.1,0,0,0,2.8-10.27V171.51l-25.52,0Z"/><path class="cls-2" d="M170,122.32a41.9,41.9,0,0,0-4.36-8.09c-1.56-2.8-4.36-5.29-7.47-7.78a43.58,43.58,0,0,0-12.14-5.6,55.15,55.15,0,0,0-17.12-2.49H127.3c-9.65,0-17.74,2.18-24.28,6.22A31.11,31.11,0,0,0,92.75,113a41.81,41.81,0,0,0-5.6,9,62.52,62.52,0,0,0-2.8,10.27v33.6l26.14,0V119.21a9.82,9.82,0,0,1,.63-2.49,18,18,0,0,1,4.67-8.71,16.91,16.91,0,0,1,7.15-3.43c2.81-.31,5-.62,6.23-.62a15.53,15.53,0,0,1,5,.93,14,14,0,0,1,6.23,3.43,12.76,12.76,0,0,1,4,5.6,26.81,26.81,0,0,1,1.87,5.29c.31,3.11.31,6.54.31,9.65v37l25.52,0V130.11A15.69,15.69,0,0,0,170,122.32Z"/><path class="cls-2" d="M277,123.57a28.47,28.47,0,0,0-4.35-7.78c-1.87-3.11-4.67-5.6-7.78-8.09a52.43,52.43,0,0,0-11.83-5.61c-4.67-1.55-10.27-2.18-17.12-2.18h-1.87a19.42,19.42,0,0,0-10.27,2.49,20.76,20.76,0,0,0-5.91,4.36V6.23h10.27V0H181.77V6.23h9V165.81l27.08,0V118a18,18,0,0,1,4.66-8.72,20.59,20.59,0,0,1,7.47-3.42c2.81-.31,5-.62,6.54-.62a19.13,19.13,0,0,1,5,.93,30.84,30.84,0,0,1,5.91,3.42,21,21,0,0,1,4.05,5.61,23.48,23.48,0,0,1,1.87,4.66v45.93h25.52V131.66A21.38,21.38,0,0,0,277,123.57Z"/><path class="cls-2" d="M253.36,229.18a13.26,13.26,0,0,1-.63,3.11,16,16,0,0,1-4.66,8.09,13.75,13.75,0,0,1-7.47,3.43,32.46,32.46,0,0,1-6.54.93c-3.11,0-6.85-1.55-11.21-4.36a18.18,18.18,0,0,1-3.42-5.6,32.47,32.47,0,0,0-2.18-4.67v-2.49h.63V171.48l-27.08,0v44c0,10.9-.94,21.79-.63,32.37a34.05,34.05,0,0,0,5.61-.31,34.86,34.86,0,0,0,7.47-2.49c2.49-1.24,4.35-2.18,5.29-3.73.31,0,.93-.94,3.11-4.36a37.55,37.55,0,0,0,8.09,9c3.74,2.8,8.72,4,14.94,4h1.87c9.65,0,17.74-1.87,24.28-5.91,4.36-2.49,7.78-5.29,10-8.41a39.94,39.94,0,0,0,5.29-9,58.34,58.34,0,0,0,2.8-10.58V171.44l-25.52,0Z"/><path class="cls-2" d="M391.24,2.49l.31-1.24H299.73L300,125.13h10a36.92,36.92,0,0,1,1.25-6.23C312.49,114.54,315,17.12,318.72,14a11.57,11.57,0,0,1,5.91-2.8,62,62,0,0,1,7.47-1.56,43.55,43.55,0,0,1,8.4-.94h18.37l-46.24,157,31.29,0Z"/><path class="cls-2" d="M376.92,171.37c.06,48.17,7.15,73.12-52.91,68.7l19.91-68.67-31.29,0c-.44,1.67-22.22,75.07-22.55,76.74h96.18V171.37Z"/><rect class="cls-2" x="376.92" y="156.66" width="9.34" height="14.72"/></g></g></svg>