<svg xmlns="http://www.w3.org/2000/svg" viewBox="0 0 439.41 234.01"><defs><style>.cls-1{fill:#194fa2;}.cls-2{fill:none;}.cls-3{fill:#ffde5a;}</style></defs><g id="Layer_2" data-name="Layer 2"><g id="Layer_1-2" data-name="Layer 1"><path class="cls-1" d="M422.89,134.14a1.87,1.87,0,0,1-1.13-3.37l10.15-7.61H1.88a1.88,1.88,0,1,1,0-3.75h430l-10.15-7.61a1.87,1.87,0,0,1-.75-1.5,1.81,1.81,0,0,1,.38-1.12,1.87,1.87,0,0,1,2.62-.38l14.65,11h0a1.81,1.81,0,0,1,.62.88h0v0h0a1.83,1.83,0,0,1,0,1h0v0h0a1.8,1.8,0,0,1-.66.91l-14.64,11A1.88,1.88,0,0,1,422.89,134.14Z"/><path class="cls-2" d="M225,167.41v1.71a23.31,23.31,0,0,1,1.49,3.2,12.6,12.6,0,0,0,2.35,3.85c3,1.92,5.55,3,7.68,3a22.14,22.14,0,0,0,4.49-.65,9.39,9.39,0,0,0,5.12-2.34,11,11,0,0,0,3.2-5.56,9,9,0,0,0,.43-2.13V128.89l-24.34,0v38.5Z"/><path class="cls-2" d="M176.58,102.89V88.38c0-2.14,0-4.49-.21-6.62a17.85,17.85,0,0,0-1.28-3.63,8.72,8.72,0,0,0-2.78-3.84A9.52,9.52,0,0,0,168,71.94a10.49,10.49,0,0,0-3.41-.64c-.86,0-2.35.21-4.27.43a11.48,11.48,0,0,0-4.91,2.34,12.46,12.46,0,0,0-3.2,6,6.35,6.35,0,0,0-.43,1.71v32l24.76,0Z"/><path class="cls-2" d="M151.82,159.94V167c.43,6,5.55,11.1,11.53,11.1a16.75,16.75,0,0,0,4.27-.43,10.78,10.78,0,0,0,5.33-2.35,9.87,9.87,0,0,0,2.78-3.84c1.07-2.78.64-6.19.64-9,.21-3,.21-6.19.21-9.39V128.94l-24.76,0v31Z"/><path class="cls-2" d="M249.8,82.19A16.14,16.14,0,0,0,248.52,79a14.5,14.5,0,0,0-2.78-3.84,21.13,21.13,0,0,0-4.05-2.35,13.41,13.41,0,0,0-3.42-.64c-1.07,0-2.56.22-4.48.43a14,14,0,0,0-5.12,2.35,12.39,12.39,0,0,0-3.21,6v32.8l24.34,0Z"/><path class="cls-2" d="M312.77,176a29.35,29.35,0,0,0,5.76-.64,28.54,28.54,0,0,0,5.13-1.71,15.2,15.2,0,0,0,5.12-3,13,13,0,0,0,3.63-5.12,38.16,38.16,0,0,0,1.71-6.62c.21-2.13.42-4.26.42-6V128.84H311.91L298.25,176Z"/><path class="cls-3" d="M79.88,228.68c-1.28,1.71-2.56,3.63-3.84,5.33,1.5-2.13,7.47-2.34,9.82-3.62a47.28,47.28,0,0,0,9.39-8.12c9.4-10.46,16.44-25,18.79-41.41,1.49-9.82,3-21.56,3.63-31.81.18-1.84.37-11,.41-20.07l-18.41,0C99.77,163.4,98.24,199.69,79.88,228.68Z"/><path class="cls-3" d="M118.31,109.3c-.22-53.16-.22-39.07-.22-96.07,0-.85,0-5.33.22-8.11h8.32V.85H92.26V5.12h7c.21,3.2.21,8.54.21,10V89c0,8,.12,16.35.15,24.77l18.41,0c0-1.43,0-2.86,0-4.26Z"/><path class="cls-3" d="M176.58,136.25v16.86c0,3.2,0,6.41-.21,9.39,0,2.78.43,6.19-.64,9a9.87,9.87,0,0,1-2.78,3.84,10.78,10.78,0,0,1-5.33,2.35,16.75,16.75,0,0,1-4.27.43c-6,0-11.1-5.13-11.53-11.1V129H133.89v31.19c0,1.06.64,2.77,1.71,5.33a21.31,21.31,0,0,0,2.77,5.34,21.1,21.1,0,0,0,5.34,5.34,31.79,31.79,0,0,0,8.11,4.05,39.25,39.25,0,0,0,12,1.71h1.29a32.87,32.87,0,0,0,16.43-4.06,24.15,24.15,0,0,0,7-5.76,32.77,32.77,0,0,0,3.63-6.41,34.31,34.31,0,0,0,1.92-7V128.93H176.58Z"/><path class="cls-3" d="M192.59,83.89a28.3,28.3,0,0,0-3-5.55A19.66,19.66,0,0,0,184.48,73a30,30,0,0,0-8.32-3.85,38.17,38.17,0,0,0-11.75-1.7h-1.06c-6.62,0-12.17,1.49-16.65,4.27a21.24,21.24,0,0,0-7,5.76,28.91,28.91,0,0,0-3.84,6.19,44.16,44.16,0,0,0-1.92,7v23h17.93v-32a6.35,6.35,0,0,1,.43-1.71,12.46,12.46,0,0,1,3.2-6,11.48,11.48,0,0,1,4.91-2.34c1.92-.22,3.41-.43,4.27-.43a10.49,10.49,0,0,1,3.41.64,9.52,9.52,0,0,1,4.27,2.35,8.72,8.72,0,0,1,2.78,3.84,17.85,17.85,0,0,1,1.28,3.63c.21,2.13.21,4.48.21,6.62v25.35h17.51V89.23A10.67,10.67,0,0,0,192.59,83.89Z"/><path class="cls-3" d="M266,84.75a19.5,19.5,0,0,0-3-5.34,22.21,22.21,0,0,0-5.34-5.55A36.16,36.16,0,0,0,249.59,70a37.36,37.36,0,0,0-11.74-1.5h-1.29a13.25,13.25,0,0,0-7,1.71,14.54,14.54,0,0,0-4.06,3V4.27h7V0H200.7V4.27h6.19V113.71h18.57V80.9a12.39,12.39,0,0,1,3.21-6,14,14,0,0,1,5.12-2.35c1.92-.21,3.41-.43,4.48-.43a13.41,13.41,0,0,1,3.42.64,21.13,21.13,0,0,1,4.05,2.35A14.5,14.5,0,0,1,248.52,79a16.14,16.14,0,0,1,1.28,3.21v31.49h17.5V90.3A14.59,14.59,0,0,0,266,84.75Z"/><path class="cls-3" d="M249.8,168.48a9,9,0,0,1-.43,2.13,11,11,0,0,1-3.2,5.56,9.39,9.39,0,0,1-5.12,2.34,22.14,22.14,0,0,1-4.49.65c-2.13,0-4.69-1.07-7.68-3a12.6,12.6,0,0,1-2.35-3.85,23.31,23.31,0,0,0-1.49-3.2v-1.71h.42v-38.5H206.89v30.17c0,7.47-.64,14.94-.42,22.2a23.55,23.55,0,0,0,3.84-.21,24.45,24.45,0,0,0,5.12-1.71c1.71-.86,3-1.5,3.63-2.56.21,0,.64-.64,2.14-3a25.62,25.62,0,0,0,5.54,6.19c2.57,1.92,6,2.77,10.25,2.77h1.28c6.62,0,12.17-1.28,16.65-4.05a20.69,20.69,0,0,0,6.83-5.77,27,27,0,0,0,3.63-6.19,39,39,0,0,0,1.92-7.25V128.88H249.8Z"/><path class="cls-3" d="M334.54,128.84V152.9c0,1.71-.21,3.84-.42,6a38.16,38.16,0,0,1-1.71,6.62,13,13,0,0,1-3.63,5.12,15.2,15.2,0,0,1-5.12,3,28.54,28.54,0,0,1-5.13,1.71,29.35,29.35,0,0,1-5.76.64H298.25l13.66-47.1-21.46,0L275.2,180.65l-.21.85h66V128.83Z"/><path class="cls-3" d="M344.36,1.71l.22-.86h-63l.22,85h6.83a24.83,24.83,0,0,1,.85-4.27c.86-3,2.56-69.8,5.13-71.93a7.86,7.86,0,0,1,4.05-1.92,42.79,42.79,0,0,1,5.12-1.07A29.53,29.53,0,0,1,309.57,6h12.59L290.45,113.66l21.46,0Z"/></g></g></svg>